HIERARCHY
ROOT Hips
{
	OFFSET -3.958830 18.904000 13.208200
	CHANNELS 6 Xposition Yposition Zposition Zrotation Yrotation Xrotation 
	JOINT LHipJoint
	{
		OFFSET 0.000000 0.000000 0.000000
		CHANNELS 3 Zrotation Yrotation Xrotation
		JOINT LeftUpLeg
		{
			OFFSET 1.800000 -1.400000 0.085000
			CHANNELS 3 Zrotation Yrotation Xrotation
			JOINT LeftLeg
			{
				OFFSET 2.215000 -6.000000 0.000000
				CHANNELS 3 Zrotation Yrotation Xrotation
				JOINT LeftFoot
				{
					OFFSET 2.500000 -6.900000 0.000000
					CHANNELS 3 Zrotation Yrotation Xrotation
					JOINT LeftToeBase
					{
						OFFSET 0.200000 -0.500000 1.950000
						CHANNELS 3 Zrotation Yrotation Xrotation
						End Site
						{
							OFFSET 0.000000 0.000000 0.000000
						}
					}
				}
			}
		}
	}
	JOINT RHipJoint
	{
		OFFSET 0.000000 0.000000 0.000000
		CHANNELS 3 Zrotation Yrotation Xrotation
		JOINT RightUpLeg
		{
			OFFSET -1.800000 -1.400000 0.085000
			CHANNELS 3 Zrotation Yrotation Xrotation
			JOINT RightLeg
			{
				OFFSET -2.215000 -6.000000 0.000000
				CHANNELS 3 Zrotation Yrotation Xrotation
				JOINT RightFoot
				{
					OFFSET -2.500000 -6.900000 0.000000
					CHANNELS 3 Zrotation Yrotation Xrotation
					JOINT RightToeBase
					{
						OFFSET -0.200000 -0.500000 1.950000
						CHANNELS 3 Zrotation Yrotation Xrotation
						End Site
						{
							OFFSET 0.000000 0.000000 0.000000
						}
					}
				}
			}
		}
	}
	JOINT LowerBack
	{
		OFFSET 0.000000 0.000000 0.000000
		CHANNELS 3 Zrotation Yrotation Xrotation
		JOINT Spine
		{
			OFFSET -0.087000 1.940000 -0.288900
			CHANNELS 3 Zrotation Yrotation Xrotation
			JOINT Spine1
			{
				OFFSET 0.000000 1.950000 0.060000
				CHANNELS 3 Zrotation Yrotation Xrotation
				JOINT Neck
				{
					OFFSET 0.000000 0.000000 0.000000
					CHANNELS 3 Zrotation Yrotation Xrotation
					JOINT Neck1
					{
						OFFSET 0.000000 1.600000 0.340000
						CHANNELS 3 Zrotation Yrotation Xrotation
						JOINT Head
						{
							OFFSET 0.000000 1.667000 -0.240000
							CHANNELS 3 Zrotation Yrotation Xrotation
							End Site
							{
								OFFSET 0.000000 0.000000 0.000000
							}
						}
					}
				}
				JOINT LeftShoulder
				{
					OFFSET 0.000000 0.000000 0.000000
					CHANNELS 3 Zrotation Yrotation Xrotation
					JOINT LeftArm
					{
						OFFSET 2.700000 1.550000 -0.730000
						CHANNELS 3 Zrotation Yrotation Xrotation
						JOINT LeftForeArm
						{
							OFFSET 5.450000 0.000000 0.000000
							CHANNELS 3 Zrotation Yrotation Xrotation
							JOINT LeftHand
							{
								OFFSET 3.450000 0.000000 0.000000
								CHANNELS 3 Zrotation Yrotation Xrotation
								JOINT LeftHandIndex1
								{
									OFFSET 0.750000 0.000000 0.000000
									CHANNELS 3 Zrotation Yrotation Xrotation
									End Site
									{
										OFFSET 0.000000 0.000000 0.000000
									}
								}
							}
						}
					}
				}
				JOINT RightShoulder
				{
					OFFSET 0.000000 0.000000 0.000000
					CHANNELS 3 Zrotation Yrotation Xrotation
					JOINT RightArm
					{
						OFFSET -2.700000 1.550000 -0.730000
						CHANNELS 3 Zrotation Yrotation Xrotation
						JOINT RightForeArm
						{
							OFFSET -5.450000 0.000000 0.000000
							CHANNELS 3 Zrotation Yrotation Xrotation
							JOINT RightHand
							{
								OFFSET -3.450000 0.000000 0.000000
								CHANNELS 3 Zrotation Yrotation Xrotation
								JOINT RightHandIndex1
								{
									OFFSET -0.750000 0.000000 0.000000
									CHANNELS 3 Zrotation Yrotation Xrotation
									End Site
									{
										OFFSET 0.000000 0.000000 0.000000
									}
								}
							}
						}
					}
				}
			}
		}
	}
}
MOTION
Frames: 11
Frame Time: 0.016667
0.258130 17.675520 -2.431590 -5.394372 15.965102 -1.316551 -14.625784 12.306203 2.451112 9.898181 -1.389393 -16.451318 -5.798048 5.347490 11.697946 -1.646626 4.943181 3.037005 -0.782530 -1.276920 -0.904660 18.827173 -11.887386 2.803380 -1.951296 0.885650 -10.609130 5.902255 -5.575269 13.603164 0.460520 -4.354743 3.060103 -0.058650 1.620070 0.033180 -5.530124 1.740553 -6.993423 17.663793 2.062244 5.358799 -16.192169 3.343341 16.663483 7.351084 0.191698 -9.116095 3.285056 9.600753 51.971241 6.780570 1.184100 11.838360 -7.167365 -19.576351 4.067346 -46.417975 -30.019897 9.676811 11.404872 -10.037754 -3.282037 -5.079552 2.377346 0.368850 0.920130 -1.108930 -0.033640 -6.471439 19.818273 5.485442 76.175174 54.612038 34.304436 17.461615 14.247124 3.073155 1.769684 -1.281140 -1.216970 0.870900 1.220770 -0.181850 
0.255060 17.681220 -2.436570 -5.406912 16.332528 -1.457100 -14.648806 12.299481 2.448328 9.877896 -1.360546 -16.443935 -5.712981 5.312125 11.718312 -1.664947 4.907482 3.025331 -0.742480 -1.227330 -0.860210 18.802580 -11.903457 2.813654 -1.881010 0.876277 -10.470878 5.857557 -5.577126 13.598677 0.427804 -4.349819 3.045385 -0.039550 1.567800 0.050370 -5.471940 1.784702 -7.015522 16.838012 2.421326 5.796891 -14.246158 3.558227 16.947630 6.980652 0.766970 -9.118995 4.510094 8.400708 51.919816 6.188670 1.337690 10.662310 -7.013449 -20.349270 4.234184 -47.092041 -30.737353 10.038401 10.729458 -11.032787 -3.318702 -5.046827 2.374298 0.395480 0.900480 -1.065120 -0.043840 -5.629751 20.427303 5.468198 74.260695 52.799980 32.227774 14.838645 13.447830 2.569598 1.767798 -1.215130 -1.194030 0.854480 1.202760 -0.199420 
0.250840 17.689180 -2.441420 -5.519744 16.912878 -1.400037 -14.694431 12.296480 2.456434 9.817370 -1.366415 -16.750242 -5.464546 5.193247 11.598406 -1.687396 4.805623 3.024953 -0.671790 -1.148770 -0.782590 18.756872 -11.890471 2.834253 -1.719741 0.894503 -10.443215 6.002950 -5.573970 13.405963 0.380626 -4.304366 3.040649 -0.015910 1.481250 0.065810 -5.352287 1.774958 -7.047845 15.523490 3.004121 6.320083 -11.090939 3.871685 17.033497 6.165236 1.680615 -9.195933 6.259748 6.454081 51.736446 5.782210 1.187300 8.863490 -6.555910 -21.210487 4.482832 -48.836557 -31.686565 10.460631 9.937401 -13.467893 -3.499593 -4.960995 2.381721 0.441670 0.853600 -0.996960 -0.056080 -4.170236 21.028089 5.405567 71.492208 49.377683 28.672280 11.513713 12.317191 1.915513 1.772035 -1.135873 -1.155520 0.831100 1.165480 -0.224570 
0.244920 17.690590 -2.444650 -5.521887 17.711140 -0.906082 -14.773943 12.318615 2.497536 9.661023 -1.437415 -17.584055 -5.289365 5.100309 11.562156 -1.675018 4.672612 3.040419 -0.615170 -1.068650 -0.730870 18.677239 -11.827205 2.844074 -1.571240 0.985200 -10.844968 6.220220 -5.545488 13.293769 0.354420 -4.217517 3.065729 -0.002230 1.405710 0.068780 -5.132436 1.623765 -7.077331 13.586159 3.704937 6.700113 -7.226450 4.168966 16.713422 4.950403 2.828192 -9.412568 8.195994 4.171751 51.277568 5.801570 0.676490 7.474320 -5.342116 -21.712424 4.688043 -51.681636 -32.928143 11.256383 8.246880 -16.713305 -3.539163 -4.857001 2.403069 0.463780 0.810280 -0.936940 -0.061950 -2.762039 21.112777 5.399774 69.184581 45.280954 24.725927 8.099779 11.395610 1.248886 1.781644 -1.088278 -1.106250 0.806650 1.120460 -0.229580 
0.244570 17.685050 -2.445770 -5.438876 18.530731 0.021243 -14.882959 12.352298 2.566733 9.327782 -1.590781 -18.903664 -5.125382 5.034284 11.689934 -1.675511 4.568331 3.070472 -0.606670 -1.045060 -0.711540 18.568451 -11.728032 2.848308 -1.493806 1.160545 -11.666062 6.560462 -5.520410 13.186968 0.350485 -4.102326 3.107819 -0.008370 1.374680 0.059730 -4.817058 1.387890 -7.092286 11.131081 4.497319 6.859157 -2.841144 4.489728 16.003370 3.655481 3.997557 -9.693048 9.950037 1.671422 50.012304 5.398090 -0.083920 6.364610 -3.915299 -21.536144 4.684908 -55.363973 -34.247956 12.245677 5.761229 -20.649943 -3.457629 -4.774810 2.411474 0.485820 0.787090 -0.900620 -0.064290 -1.440415 20.559124 5.450033 67.004039 40.775311 20.389790 4.941721 11.466280 0.597006 1.768524 -1.034176 -1.093540 0.819600 1.103860 -0.232130 
0.247910 17.688240 -2.446580 -5.345595 19.377844 0.991390 -14.994532 12.401258 2.639826 8.880100 -1.775862 -20.244317 -4.789479 4.931500 11.883315 -1.683589 4.444390 3.106768 -0.574570 -1.001940 -0.656290 18.456650 -11.616893 2.853814 -1.453112 1.333573 -12.489873 6.919707 -5.489712 12.997719 0.331974 -3.965110 3.156330 -0.008100 1.320580 0.052620 -4.488991 1.105445 -7.101530 8.750056 5.035101 6.949359 1.084868 4.611461 15.221921 2.566400 4.876715 -10.096453 11.155370 -0.655796 49.262061 4.729560 -0.841950 4.784600 -2.622801 -21.074710 4.772656 -58.576301 -34.699926 12.440003 2.317981 -25.636064 -3.160904 -4.675482 2.422424 0.529160 0.750480 -0.841420 -0.068240 -0.437440 19.845852 5.476055 65.070637 36.994242 16.874220 2.527394 11.309419 0.145500 1.761120 -0.981118 -1.076600 0.835580 1.069570 -0.245640 
0.260650 17.698070 -2.443470 -5.348647 19.934547 1.881039 -15.068606 12.437245 2.683576 8.321603 -1.909978 -21.337254 -4.087895 4.734322 11.992954 -1.692211 4.263100 3.168071 -0.528140 -0.930300 -0.611120 18.382839 -11.549264 2.866497 -1.349459 1.446818 -13.149425 7.028868 -5.389541 12.679926 0.306885 -3.820269 3.217249 0.004130 1.265610 0.028180 -4.268190 0.928106 -7.100202 7.155835 5.574610 6.960917 4.216946 4.836171 14.541978 1.624451 5.349334 -10.465490 11.520674 -2.551888 48.484127 4.508990 -1.889540 2.867600 -1.375099 -20.369810 4.865415 -61.451782 -34.630243 12.210874 -2.610691 -30.951165 -2.308595 -4.570909 2.463701 0.570250 0.701390 -0.783340 -0.060550 0.230695 19.068239 5.516371 63.094253 33.432155 13.805838 0.957107 10.887222 -0.113951 1.758338 -0.930524 -1.055500 0.865540 1.028330 -0.249470 
0.279130 17.709440 -2.438090 -5.075831 20.276586 2.947170 -15.150964 12.457554 2.743907 7.651085 -2.048500 -22.108382 -3.815128 4.561784 11.555116 -1.693314 4.094778 3.233031 -0.503640 -0.875750 -0.592920 18.302219 -11.464093 2.861863 -1.651830 1.564996 -13.919750 7.387756 -5.332446 12.286135 0.293686 -3.695813 3.275697 0.012690 1.222740 -0.004150 -4.010229 0.732903 -7.082081 5.177941 6.195268 6.806640 7.514403 5.118951 13.983446 0.670525 5.613288 -10.860955 11.414370 -4.121611 47.285520 4.140940 -2.819820 1.269170 -0.247191 -19.486052 5.004373 -64.484418 -34.069863 11.737386 -8.569049 -36.459253 -0.876693 -4.487905 2.538886 0.600220 0.661490 -0.739090 -0.050100 1.053284 18.297100 5.626221 60.888342 29.722478 10.555989 -0.837270 10.833174 -0.398953 1.749849 -0.885671 -1.044930 0.897490 0.996810 -0.249320 
0.307670 17.720020 -2.430730 -4.685980 20.499731 4.078161 -15.225088 12.482594 2.788569 6.641870 -2.226895 -22.732947 -3.183904 4.295120 11.104189 -1.681164 3.894406 3.311170 -0.481090 -0.840940 -0.567180 18.229602 -11.383864 2.856340 -2.332456 1.650089 -14.599093 8.066190 -5.347050 11.778237 0.279434 -3.614220 3.309128 0.004390 1.175510 -0.016430 -3.774410 0.539812 -7.044800 3.245571 6.821085 6.476957 10.824361 5.361675 13.490616 -0.335465 5.686882 -11.247432 10.880626 -5.458759 45.901067 3.742860 -3.763780 0.133100 0.458205 -18.548331 5.227695 -67.460964 -32.952845 11.220681 -15.750862 -41.760522 1.455639 -4.424408 2.658669 0.620720 0.623470 -0.698690 -0.044740 2.375063 17.530269 5.744384 58.501224 25.863509 7.246429 -3.356269 10.625635 -0.718971 1.757676 -0.866707 -1.019530 0.896740 0.964200 -0.249050 
0.340470 17.729100 -2.417370 -4.362883 20.598207 5.085187 -15.281223 12.505455 2.825256 5.728251 -2.367971 -23.034109 -2.643536 4.026069 10.370133 -1.664936 3.700490 3.380387 -0.458370 -0.805840 -0.536880 18.177008 -11.298503 2.853446 -2.978436 1.676036 -15.022112 8.696387 -5.331605 11.045481 0.261839 -3.536919 3.340276 -0.004810 1.117460 -0.029630 -3.594142 0.342747 -7.014594 1.811137 7.307642 6.117700 13.508111 5.542983 12.966401 -1.160532 5.564237 -11.425255 9.927932 -6.526305 44.766048 3.406560 -4.618050 -1.106460 0.690203 -17.252384 5.379538 -69.911851 -31.293373 10.872911 -24.320649 -46.135191 5.085378 -4.371390 2.765894 0.641360 0.580110 -0.655220 -0.046900 3.772579 16.385040 5.729152 56.396718 22.127800 4.335420 -5.284464 10.613324 -0.930238 1.771974 -0.841851 -0.990420 0.889000 0.932520 -0.252020 
0.377600 17.725750 -2.401870 -4.038660 20.671370 6.368519 -15.314446 12.472192 2.872415 4.872570 -2.583101 -23.540631 -2.368663 3.806559 9.525707 -1.659279 3.556391 3.441198 -0.474480 -0.811300 -0.547170 18.159089 -11.208197 2.837218 -3.569661 1.729306 -15.672651 9.117995 -5.255086 10.298415 0.285831 -3.480875 3.368561 -0.016310 1.103680 -0.043780 -3.491895 0.217857 -6.957777 0.599082 7.616748 5.377617 15.581609 5.615605 12.295933 -1.834434 5.509487 -11.183222 9.152514 -7.329549 42.081111 2.695860 -5.335510 -1.410620 0.949510 -15.240188 5.317385 -72.210020 -29.149184 11.007995 -34.361946 -49.242707 10.202228 -4.362858 2.881039 0.622560 0.579010 -0.662400 -0.055300 4.779229 14.354969 5.339272 55.270490 18.896012 1.976787 -7.269965 11.042604 -1.218006 1.774338 -0.845046 -0.982240 0.878140 0.928390 -0.249190 
